<svg xmlns="http://www.w3.org/2000/svg" xmlns:xlink="http://www.w3.org/1999/xlink" width="350" zoomAndPan="magnify" viewBox="0 0 262.5 74.999997" height="100" preserveAspectRatio="xMidYMid meet" version="1.0"><defs><g/></defs><path fill="#000000" d="M 19.859375 20.117188 C 16.328125 16.582031 26.707031 26.523438 34.789062 15.71875 C 35.3125 14.957031 35.921875 14.269531 36.617188 13.652344 C 37.308594 13.039062 38.0625 12.515625 38.882812 12.085938 C 39.699219 11.652344 40.558594 11.324219 41.457031 11.097656 C 42.351562 10.875 43.265625 10.757812 44.191406 10.753906 C 51.15625 10.816406 56.511719 15.945312 55.722656 28.363281 C 54.679688 44.90625 39.085938 66.757812 38.875 60.824219 C 38.515625 50.476562 36.125 41.871094 27.519531 42.9375 C 42.097656 35.445312 41.347656 56.605469 41.347656 56.605469 C 41.347656 56.605469 49.65625 42.09375 50.820312 32.179688 C 52.296875 19.667969 48.253906 12.667969 40.929688 15.003906 C 33.605469 17.335938 32.472656 28.976562 19.859375 20.117188 Z M 19.859375 20.117188 " fill-opacity="1" fill-rule="nonzero"/><path fill="#000000" d="M 31.628906 14.5 C 28.933594 14.046875 26.320312 13.308594 23.789062 12.285156 C 13.324219 8.230469 3.753906 11.832031 4.804688 28.363281 C 5.851562 44.894531 22.023438 66.75 21.664062 60.824219 C 21.300781 54.898438 25.988281 45.382812 31.394531 45.902344 C 21.371094 39.871094 19.1875 56.59375 19.1875 56.59375 C 19.1875 56.59375 10.871094 42.09375 9.710938 32.179688 C 8.246094 19.667969 12.292969 12.667969 19.601562 15.003906 C 26.910156 17.335938 29.296875 17.664062 31.628906 14.5 Z M 31.628906 14.5 " fill-opacity="1" fill-rule="nonzero"/><g fill="#eaf8ff" fill-opacity="0.8314"><g transform="translate(67.37569, 52.798984)"><g><path d="M 20.53125 0.484375 C 30.65625 0.484375 37.984375 -6.765625 37.984375 -16.796875 C 37.984375 -26.8125 30.65625 -34.0625 20.578125 -34.0625 C 10.5 -34.0625 3.171875 -26.8125 3.171875 -16.796875 C 3.171875 -6.765625 10.5 0.484375 20.53125 0.484375 Z M 20.578125 -2.96875 C 12.71875 -2.96875 7.09375 -8.59375 7.09375 -16.796875 C 7.09375 -24.984375 12.71875 -30.65625 20.578125 -30.65625 C 28.453125 -30.65625 34.0625 -24.984375 34.0625 -16.796875 C 34.0625 -8.59375 28.453125 -2.96875 20.578125 -2.96875 Z M 20.578125 -2.96875 "/></g></g></g><g fill="#eaf8ff" fill-opacity="0.8314"><g transform="translate(108.523817, 52.798984)"><g><path d="M 26.234375 -35.40625 L 26.234375 -21.296875 C 23.890625 -24.703125 20 -26.390625 15.921875 -26.390625 C 8.25 -26.390625 2.546875 -20.765625 2.546875 -13.046875 C 2.546875 -5.234375 8.25 0.484375 16.21875 0.484375 C 24.171875 0.484375 29.84375 -5.1875 29.84375 -13.234375 L 29.84375 -35.40625 Z M 16.171875 -2.828125 C 10.359375 -2.828125 6.140625 -7 6.140625 -13 C 6.140625 -19 10.359375 -23.125 16.21875 -23.125 C 22.015625 -23.125 26.234375 -19 26.234375 -13 C 26.234375 -7 22.015625 -2.828125 16.171875 -2.828125 Z M 16.171875 -2.828125 "/></g></g></g><g fill="#eaf8ff" fill-opacity="0.8314"><g transform="translate(141.902717, 52.798984)"><g><path d="M 16.171875 0.484375 C 24.125 0.484375 29.84375 -5.234375 29.84375 -13.046875 C 29.84375 -20.765625 24.125 -26.390625 16.171875 -26.390625 C 8.25 -26.390625 2.546875 -20.765625 2.546875 -13 C 2.546875 -5.1875 8.203125 0.484375 16.171875 0.484375 Z M 16.21875 -2.828125 C 10.359375 -2.828125 6.140625 -7 6.140625 -13 C 6.140625 -19 10.359375 -23.125 16.171875 -23.125 C 22.015625 -23.125 26.234375 -19 26.234375 -13 C 26.234375 -7 22.015625 -2.828125 16.21875 -2.828125 Z M 16.21875 -2.828125 "/></g></g></g><g fill="#eaf8ff" fill-opacity="0.8314"><g transform="translate(174.274499, 52.798984)"><g><path d="M 7.09375 -13.765625 C 7.09375 -19.953125 10.984375 -23.125 15.453125 -23.125 C 20 -23.125 23.796875 -19.953125 23.796875 -13.765625 L 23.796875 0 L 27.390625 0 L 27.390625 -13.28125 C 27.390625 -21.734375 22.015625 -26.390625 15.453125 -26.390625 C 8.828125 -26.390625 3.546875 -21.640625 3.546875 -13.28125 L 3.546875 0 L 7.09375 0 Z M 7.09375 -13.765625 "/></g></g></g><g fill="#eaf8ff" fill-opacity="0.8314"><g transform="translate(205.207535, 52.798984)"><g><path d="M 6.421875 -22.640625 L 6.421875 -7.578125 C 6.421875 -2.5 9.5 0.484375 14.484375 0.484375 C 16.40625 0.484375 19.140625 -0.09375 20.8125 -1.109375 L 20.046875 -3.9375 C 18.703125 -3.21875 16.546875 -2.78125 15.0625 -2.78125 C 12 -2.78125 10.03125 -4.84375 10.03125 -8.15625 L 10.03125 -22.640625 L 19.859375 -22.640625 L 19.859375 -25.953125 L 1.875 -25.953125 L 1.875 -22.640625 Z M 6.421875 -22.640625 "/></g></g></g><g fill="#eaf8ff" fill-opacity="0.8314"><g transform="translate(227.987671, 52.798984)"><g><path d="M 16.171875 0.484375 C 24.125 0.484375 29.84375 -5.234375 29.84375 -13.046875 C 29.84375 -20.765625 24.125 -26.390625 16.171875 -26.390625 C 8.25 -26.390625 2.546875 -20.765625 2.546875 -13 C 2.546875 -5.1875 8.203125 0.484375 16.171875 0.484375 Z M 16.21875 -2.828125 C 10.359375 -2.828125 6.140625 -7 6.140625 -13 C 6.140625 -19 10.359375 -23.125 16.171875 -23.125 C 22.015625 -23.125 26.234375 -19 26.234375 -13 C 26.234375 -7 22.015625 -2.828125 16.21875 -2.828125 Z M 16.21875 -2.828125 "/></g></g></g><g fill="#323232" fill-opacity="1"><g transform="translate(65.255838, 50.679128)"><g><path d="M 20.53125 0.484375 C 30.65625 0.484375 37.984375 -6.765625 37.984375 -16.796875 C 37.984375 -26.8125 30.65625 -34.0625 20.578125 -34.0625 C 10.5 -34.0625 3.171875 -26.8125 3.171875 -16.796875 C 3.171875 -6.765625 10.5 0.484375 20.53125 0.484375 Z M 20.578125 -2.96875 C 12.71875 -2.96875 7.09375 -8.59375 7.09375 -16.796875 C 7.09375 -24.984375 12.71875 -30.65625 20.578125 -30.65625 C 28.453125 -30.65625 34.0625 -24.984375 34.0625 -16.796875 C 34.0625 -8.59375 28.453125 -2.96875 20.578125 -2.96875 Z M 20.578125 -2.96875 "/></g></g></g><g fill="#323232" fill-opacity="1"><g transform="translate(106.403965, 50.679128)"><g><path d="M 26.234375 -35.40625 L 26.234375 -21.296875 C 23.890625 -24.703125 20 -26.390625 15.921875 -26.390625 C 8.25 -26.390625 2.546875 -20.765625 2.546875 -13.046875 C 2.546875 -5.234375 8.25 0.484375 16.21875 0.484375 C 24.171875 0.484375 29.84375 -5.1875 29.84375 -13.234375 L 29.84375 -35.40625 Z M 16.171875 -2.828125 C 10.359375 -2.828125 6.140625 -7 6.140625 -13 C 6.140625 -19 10.359375 -23.125 16.21875 -23.125 C 22.015625 -23.125 26.234375 -19 26.234375 -13 C 26.234375 -7 22.015625 -2.828125 16.171875 -2.828125 Z M 16.171875 -2.828125 "/></g></g></g><g fill="#323232" fill-opacity="1"><g transform="translate(139.782866, 50.679128)"><g><path d="M 16.171875 0.484375 C 24.125 0.484375 29.84375 -5.234375 29.84375 -13.046875 C 29.84375 -20.765625 24.125 -26.390625 16.171875 -26.390625 C 8.25 -26.390625 2.546875 -20.765625 2.546875 -13 C 2.546875 -5.1875 8.203125 0.484375 16.171875 0.484375 Z M 16.21875 -2.828125 C 10.359375 -2.828125 6.140625 -7 6.140625 -13 C 6.140625 -19 10.359375 -23.125 16.171875 -23.125 C 22.015625 -23.125 26.234375 -19 26.234375 -13 C 26.234375 -7 22.015625 -2.828125 16.21875 -2.828125 Z M 16.21875 -2.828125 "/></g></g></g><g fill="#323232" fill-opacity="1"><g transform="translate(172.154647, 50.679128)"><g><path d="M 7.09375 -13.765625 C 7.09375 -19.953125 10.984375 -23.125 15.453125 -23.125 C 20 -23.125 23.796875 -19.953125 23.796875 -13.765625 L 23.796875 0 L 27.390625 0 L 27.390625 -13.28125 C 27.390625 -21.734375 22.015625 -26.390625 15.453125 -26.390625 C 8.828125 -26.390625 3.546875 -21.640625 3.546875 -13.28125 L 3.546875 0 L 7.09375 0 Z M 7.09375 -13.765625 "/></g></g></g><g fill="#323232" fill-opacity="1"><g transform="translate(203.087683, 50.679128)"><g><path d="M 6.421875 -22.640625 L 6.421875 -7.578125 C 6.421875 -2.5 9.5 0.484375 14.484375 0.484375 C 16.40625 0.484375 19.140625 -0.09375 20.8125 -1.109375 L 20.046875 -3.9375 C 18.703125 -3.21875 16.546875 -2.78125 15.0625 -2.78125 C 12 -2.78125 10.03125 -4.84375 10.03125 -8.15625 L 10.03125 -22.640625 L 19.859375 -22.640625 L 19.859375 -25.953125 L 1.875 -25.953125 L 1.875 -22.640625 Z M 6.421875 -22.640625 "/></g></g></g><g fill="#323232" fill-opacity="1"><g transform="translate(225.86782, 50.679128)"><g><path d="M 16.171875 0.484375 C 24.125 0.484375 29.84375 -5.234375 29.84375 -13.046875 C 29.84375 -20.765625 24.125 -26.390625 16.171875 -26.390625 C 8.25 -26.390625 2.546875 -20.765625 2.546875 -13 C 2.546875 -5.1875 8.203125 0.484375 16.171875 0.484375 Z M 16.21875 -2.828125 C 10.359375 -2.828125 6.140625 -7 6.140625 -13 C 6.140625 -19 10.359375 -23.125 16.171875 -23.125 C 22.015625 -23.125 26.234375 -19 26.234375 -13 C 26.234375 -7 22.015625 -2.828125 16.21875 -2.828125 Z M 16.21875 -2.828125 "/></g></g></g></svg>